<?xml version="1.0" standalone="no"?><!DOCTYPE svg PUBLIC "-//W3C//DTD SVG 1.1//EN" "http://www.w3.org/Graphics/SVG/1.1/DTD/svg11.dtd"><svg t="1597305856927" class="icon" viewBox="0 0 1024 1024" version="1.1" xmlns="http://www.w3.org/2000/svg" p-id="8117" xmlns:xlink="http://www.w3.org/1999/xlink" width="200" height="200"><defs><style type="text/css"></style></defs><path d="M0 258.72v506.528h517.536L1024 258.72z m139.264 94.208h0.224c36.832 0.032 81.696 10.464 114.176 27.008L218.688 440.96c-35.616-17.248-53.536-18.848-73.824-19.936-30.208-1.632-45.408 9.184-45.6 20.832-0.288 14.176 28.544 27.008 55.68 35.744 41.12 13.056 93.44 30.496 101.408 81.056l75.168-198.688h87.296l88.064 237.92-0.288-237.856h101.12c96.288 0 141.568 32.608 141.568 107.488 0 67.2-46.496 107.264-125.28 107.264h-32.544l-0.416 89.344-153.088-0.128-10.656-38.752a167.744 167.744 0 0 1-52.48 8.064c-19.456 0-37.76-3.04-53.888-8.544l-15.264 39.2-85.344 0.256 3.84-19.712c-1.248 1.056-2.432 2.144-3.712 3.168-22.816 18.336-51.552 26.848-86.912 27.488l-9.088 0.096H122.24a215.424 215.424 0 0 1-108.96-29.376l1.024 0.544 31.136-61.792c33.696 19.936 54.88 24.416 83.456 23.808 14.816-0.288 25.504-2.976 32.48-10.208a23.552 23.552 0 0 0 6.656-15.712v-0.032c0.288-16.032-22.624-23.584-50.56-32.256-22.656-7.008-48.416-16.608-68.512-31.36-23.84-17.504-35.2-39.424-34.656-70.4a84.8 84.8 0 0 1 24.16-58.784v0.032c22.144-22.912 57.888-36.832 100.832-36.832z m452.128 71.264v81.248h22.24c29.6 0 53.216-9.824 53.248-41.12 0-30.24-23.648-40.096-53.248-40.096z m-217.024 32.736l-31.904 100.768a91.2 91.2 0 0 0 32.288 5.664c11.424 0 22.176-2.016 31.648-5.376z" p-id="8118"></path></svg>