<?xml version="1.0" standalone="no"?><!DOCTYPE svg PUBLIC "-//W3C//DTD SVG 1.1//EN" "http://www.w3.org/Graphics/SVG/1.1/DTD/svg11.dtd"><svg t="1597305812225" class="icon" viewBox="0 0 1024 1024" version="1.1" xmlns="http://www.w3.org/2000/svg" p-id="6912" xmlns:xlink="http://www.w3.org/1999/xlink" width="200" height="200"><defs><style type="text/css"></style></defs><path d="M839.68 665.6v256h-256v-58.88c0-53.76-43.52-99.84-99.84-99.84S384 806.4 384 862.72V921.6H128v-256h58.88C240.64 665.6 286.72 622.08 286.72 565.76S243.2 465.92 186.88 465.92H128V209.92h256V151.04c0-56.32 46.08-99.84 99.84-99.84S583.68 94.72 583.68 151.04V209.92h256v256h58.88c53.76 0 99.84 43.52 99.84 99.84s-43.52 99.84-99.84 99.84H839.68z" p-id="6913"></path></svg>