<?xml version="1.0" standalone="no"?><!DOCTYPE svg PUBLIC "-//W3C//DTD SVG 1.1//EN" "http://www.w3.org/Graphics/SVG/1.1/DTD/svg11.dtd"><svg t="1597307157435" class="icon" viewBox="0 0 1024 1024" version="1.1" xmlns="http://www.w3.org/2000/svg" p-id="17420" xmlns:xlink="http://www.w3.org/1999/xlink" width="200" height="200"><defs><style type="text/css"></style></defs><path d="M512 64L384 128v192L512 384l128-64V128z m192 179.83488v70.656l64 30.14656v128.49152l35.75808-17.6128 28.24192-13.98784v-96.8704c0-24.90368-14.336-47.37024-36.72064-57.93792z m-384 3.05152l-90.15296 40.2432a63.81568 63.81568 0 0 0-37.84704 58.38848v96.01024l28.24192 13.98784 35.75808 17.6128v-127.5904l64-28.5696z m-128 265.99424l-128 63.11936V768l128 64.88064 128-64.88064v-192z m640 0l-128 63.11936V768l128 64.88064 128-64.88064v-192zM384 773.12v34.16064l-35.1232 17.83808-4.15744 2.17088 145.5104 64.94208a64.512 64.512 0 0 0 43.52 0l146.0224-64.7168-4.64896-2.39616-35.1232-17.83808V773.12L512 832z" p-id="17421"></path></svg>