<?xml version="1.0" standalone="no"?><!DOCTYPE svg PUBLIC "-//W3C//DTD SVG 1.1//EN" "http://www.w3.org/Graphics/SVG/1.1/DTD/svg11.dtd"><svg t="1597305950791" class="icon" viewBox="0 0 1024 1024" version="1.1" xmlns="http://www.w3.org/2000/svg" p-id="11265" xmlns:xlink="http://www.w3.org/1999/xlink" width="200" height="200"><defs><style type="text/css"></style></defs><path d="M727.529157 36.870384c-194.478619-93.072156-410.679029 9.534723-477.06768 93.129318-66.743059 84.051896-85.469529 140.174143-96.982078 295.107672L90.349017 535.568394a40.17388 40.17388 0 0 0 18.292034 56.510953l94.672708 43.03201-2.286504 197.165261h143.535304v191.711949h408.655473V763.247055c47.719344-35.886684 185.721308-158.820585 185.721308-380.520038-0.022865-146.850736-35.955279-261.873332-211.410183-345.856633z m143.718224 315.663345h-99.462935c0.125758-3.075348 0.205785-6.162129 0.205786-9.271775 0-117.297668-88.842123-214.222583-202.77863-227.049872v-49.159842c42.80336 1.006062 86.887162 10.003456 129.324681 30.341912 133.291765 63.770604 167.989467 143.123734 172.711098 255.139577zM421.160452 213.800083l57.67707 72.665105a87.756033 87.756033 0 0 0-11.821227 96.730563l-66.457247 66.457246a177.924328 177.924328 0 0 1 20.578539-235.852914z m70.035625 129.873442a54.373071 54.373071 0 1 1 54.361639 54.373071 54.418801 54.418801 0 0 1-54.361639-54.373071z m-3.429756 66.20573a87.881791 87.881791 0 1 0 17.365999-144.255553l-57.585609-72.493617a177.112619 177.112619 0 0 1 95.918853-28.078273c98.319683 0 178.210141 79.947621 178.210142 178.210142s-79.913324 178.221574-178.175844 178.221574a177.547055 177.547055 0 0 1-120.384449-46.873337z m214.062528 307.534822l-15.742582 9.854834v229.656487H411.625729v-191.723382H268.879269l1.954961-173.054074-107.614323-48.919759 56.019354-98.091032 0.537329-7.614059c10.632245-148.885724 23.848239-191.117458 83.171592-265.80612 35.269328-44.335317 127.701263-96.444749 232.7547-103.88732v47.06769c-122.408005 4.12714-220.716255 104.97341-220.716255 228.364612 0 126.009249 102.503986 228.513235 228.513235 228.513235 111.375622 0 204.379183-80.096244 224.477555-185.709875h103.853023c-1.611985 221.9624-163.142078 327.038703-169.967294 331.371628z" p-id="11266"></path></svg>