<?xml version="1.0" standalone="no"?><!DOCTYPE svg PUBLIC "-//W3C//DTD SVG 1.1//EN" "http://www.w3.org/Graphics/SVG/1.1/DTD/svg11.dtd"><svg t="1597306159800" class="icon" viewBox="0 0 1024 1024" version="1.1" xmlns="http://www.w3.org/2000/svg" p-id="12832" xmlns:xlink="http://www.w3.org/1999/xlink" width="200" height="200"><defs><style type="text/css"></style></defs><path d="M547.288615 113.270154c48.632123 10.460554 87.701662 50.5856 97.0752 99.721846 5.891938 31.350154 0.393846 63.2832-15.28123 89.9072l113.963323 127.968492a9.609846 9.609846 0 0 0 10.996184 2.4576l133.702893-53.846646a53.279508 53.279508 0 0 1 54.728861 9.216c15.281231 13.1072 21.582769 33.571446 17.092923 53.248l-104.180184 436.759631C847.856246 908.587323 821.799385 929.476923 791.268431 929.476923H248.154585c-30.5152 0-56.556308-20.8896-63.6928-50.569846L80.265846 442.131692a53.720615 53.720615 0 0 1 17.092923-53.248 52.917169 52.917169 0 0 1 54.728862-9.200246l133.702892 53.846646a10.019446 10.019446 0 0 0 10.996185-2.4576l113.742769-125.920492c0.630154-0.8192 0.4096-1.8432 0-2.678154a128.362338 128.362338 0 0 1-17.486769-64.496246 127.543138 127.543138 0 0 1 46.993723-99.296492A126.109538 126.109538 0 0 1 547.288615 113.270154z m-80.580923 58.7776a84.7872 84.7872 0 0 0-31.350154 66.134646c0 15.1552 4.080246 30.1056 11.610585 43.008 9.972185 17.2032 7.924185 38.281846-5.088492 52.822646l-113.758523 125.936246a51.625354 51.625354 0 0 1-57.800862 13.312l-133.687138-53.846646c-5.702892-2.2528-9.767385 0.598646-11.405785 1.827446a10.696862 10.696862 0 0 0-3.465846 11.0592l104.195938 436.775385c2.441846 10.6496 11.815385 18.006646 22.591016 18.006646h49.246523v-0.2048h493.489231c10.775631 0 20.149169-7.357046 22.591015-18.006646l104.180185-436.775385c1.417846-5.9392-2.032246-9.609846-3.465847-11.0592-1.622646-1.2288-5.687138-4.096-11.39003-1.827446l-133.687139 53.846646a52.224 52.224 0 0 1-57.800861-13.312l-113.74277-125.936246a44.378585 44.378585 0 0 1-5.293292-52.413046c10.775631-18.0224 14.241477-38.912 10.161231-60.195446a83.968 83.968 0 0 0-64.3072-66.1504c-26.245908-5.513846-51.672615 0.4096-71.837539 17.014154zM250.785477 592.439138l40.707938 184.288493a20.401231 20.401231 0 0 1-15.470277 24.355446 20.637538 20.637538 0 0 1-24.213661-15.5648L211.101538 601.261292a20.401231 20.401231 0 0 1 15.470277-24.3712 20.2752 20.2752 0 0 1 24.213662 15.5648z" p-id="12833"></path></svg>