<?xml version="1.0" standalone="no"?><!DOCTYPE svg PUBLIC "-//W3C//DTD SVG 1.1//EN" "http://www.w3.org/Graphics/SVG/1.1/DTD/svg11.dtd"><svg t="1597305910404" class="icon" viewBox="0 0 1024 1024" version="1.1" xmlns="http://www.w3.org/2000/svg" p-id="9764" xmlns:xlink="http://www.w3.org/1999/xlink" width="200" height="200"><defs><style type="text/css"></style></defs><path d="M290.306 218.185c0-2.816-1.088-90.495 20.672-117.439 22.016-27.52 85.055-63.04 85.055-63.04s71.935-44.735 85.183-36.67c13.44 7.935 11.136 94.59 11.136 94.59s-0.64 85.631-14.528 110.335c-13.823 24.64-85.823 67.711-85.823 67.711s-63.039 41.152-84.67 40.32c-21.249-0.768-17.089-92.8-17.025-95.807z m43.84 438.203c0.512 15.552 77.055 56.127 77.055 56.127s75.263 41.344 103.359 41.344c28.352 0 101.055-41.6 101.055-41.6s66.815-34.815 76.735-54.015c9.728-18.944-72.64-60.415-75.263-61.887-2.432-1.408-78.4-45.184-112.447-39.552-34.88 5.888-96.703 43.328-96.703 43.328s-74.303 40.767-73.791 56.255z m-31.424-65.407c21.632 0.832 84.607-40.32 84.607-40.32s71.936-43.071 85.823-67.711c13.888-24.576 14.592-110.27 14.592-110.27s2.112-86.592-11.136-94.656c-13.311-8.064-85.247 36.608-85.247 36.608s-62.911 35.711-85.055 63.04c-21.695 27.007-20.672 114.622-20.672 117.566-0.128 2.88-4.16 94.975 17.088 95.743z m485.243-237.566c13.952 24.64 85.951 67.712 85.951 67.712s62.975 41.215 84.607 40.32c21.184-0.833 17.152-92.8 17.088-95.744 0-2.88 1.216-90.43-20.608-117.566-22.144-27.392-85.119-63.04-85.119-63.04s-71.935-44.735-85.183-36.607c-13.376 8-11.2 94.59-11.2 94.59s0.768 85.824 14.464 110.335z m-70.143 24.256c-22.208-27.392-85.12-63.103-85.12-63.103s-71.935-44.608-85.246-36.544c-13.248 8.064-11.2 94.655-11.2 94.655s0.832 85.631 14.656 110.271c13.887 24.64 85.759 67.711 85.759 67.711s63.103 41.152 84.67 40.32c21.248-0.832 17.153-92.927 17.025-95.807 0-2.88 1.151-90.495-20.544-117.503z m-171.518-171.71c13.76 24.64 85.759 67.711 85.759 67.711s63.039 41.152 84.67 40.32c21.185-0.768 17.153-92.8 17.089-95.807 0-2.816 1.024-90.495-20.672-117.439-22.08-27.52-85.12-63.04-85.12-63.04S556.033-7.092 542.785 0.972c-13.376 8-11.136 94.655-11.136 94.655s0.704 85.631 14.656 110.335zM231.299 630.532c13.824-24.703 14.592-110.334 14.592-110.334s2.176-86.592-11.072-94.72c-13.44-8-85.375 36.672-85.375 36.672s-62.847 35.584-84.991 63.04c-21.76 27.071-20.736 114.622-20.736 117.502-0.064 2.944-4.032 94.975 17.088 95.871 21.696 0.704 84.671-40.383 84.671-40.383s72-43.2 85.823-67.648z m629.625 97.407c-2.432-1.344-78.335-45.247-112.51-39.423-34.752 5.696-96.64 43.263-96.64 43.263s-74.303 40.704-73.855 56.256c0.64 15.487 77.12 56.127 77.12 56.127s75.263 41.344 103.294 41.344c28.352 0 101.12-41.728 101.12-41.728s66.814-34.816 76.67-54.015c9.856-18.88-72.447-60.48-75.199-61.824zM65.477 461.446c21.632 0.832 84.671-40.32 84.671-40.32s71.935-43.007 85.823-67.71c13.824-24.576 14.656-110.4 14.656-110.4s2.112-86.462-11.072-94.526c-13.44-8.064-85.375 36.671-85.375 36.671s-62.975 35.584-85.055 62.976c-21.76 27.135-20.672 114.686-20.672 117.566-0.128 2.944-4.16 94.975 17.024 95.743z m914.806 181.246c0.064-2.88 1.088-90.43-20.672-117.503-22.08-27.455-85.119-63.039-85.119-63.039s-71.807-44.671-85.183-36.671c-13.248 8.127-11.2 94.719-11.2 94.719s0.832 85.63 14.656 110.334c13.824 24.512 85.759 67.712 85.759 67.712s63.04 41.087 84.735 40.383c21.248-0.96 17.088-92.99 17.024-95.935z m-534.97 153.982c9.664-18.88-72.64-60.35-75.327-61.823-2.432-1.344-78.336-45.183-112.511-39.487-34.688 5.824-96.64 43.263-96.64 43.263S86.598 779.46 87.11 795.011s77.055 56.063 77.055 56.063 75.135 41.343 103.423 41.343 101.055-41.6 101.055-41.6 66.687-34.879 76.67-54.143z m168.574 69.76c-2.432-1.344-78.271-45.184-112.447-39.424-34.816 5.824-96.767 43.2-96.767 43.2s-74.175 40.895-73.663 56.447c0.512 15.552 77.055 56.063 77.055 56.063S483.136 1024 511.36 1024s101.055-41.6 101.055-41.6 66.815-34.815 76.671-54.015c9.728-18.944-72.575-60.543-75.2-61.951z" p-id="9765"></path></svg>