<?xml version="1.0" standalone="no"?><!DOCTYPE svg PUBLIC "-//W3C//DTD SVG 1.1//EN" "http://www.w3.org/Graphics/SVG/1.1/DTD/svg11.dtd"><svg class="icon" width="48px" height="48.00px" viewBox="0 0 1024 1024" version="1.1" xmlns="http://www.w3.org/2000/svg"><path d="M522.964 578.684l-66.68-66.68 60.316-60.316c3.182 8.273 8.203 15.98 14.92 22.698 25.951 25.95 67.953 25.95 93.904 0s25.95-67.953 0-93.904c-6.647-6.646-14.425-11.596-22.698-14.92l69.65-69.65 197.283 197.283c10.394 10.395 10.394 27.224 0 37.618L672.376 728.096 615.03 670.75c-2.405 3.677-5.233 7.07-8.486 10.323-25.95 25.951-67.953 25.951-93.903 0-25.951-25.95-25.951-67.953 0-93.903 3.252-3.253 6.788-6.081 10.323-8.486z" fill="#19CAB6" /><path d="M550.259 79.75l394.636 394.636c20.789 20.789 20.718 54.377 0 75.095L550.259 944.117c-20.79 20.79-54.377 20.718-75.095 0L80.528 549.481c-20.79-20.79-20.719-54.377 0-75.095L475.164 79.75c20.718-20.718 54.376-20.718 75.095 0z m-18.81 18.809c-10.394-10.395-27.223-10.395-37.617 0L99.195 493.195c-10.394 10.395-10.394 27.224 0 37.618L493.832 925.45c10.394 10.394 27.223 10.394 37.618 0l394.636-394.637c10.394-10.394 10.394-27.223 0-37.618L531.45 98.56z m267.782 136.26c-7.778-7.779-7.778-20.365 0-28.144s20.365-7.778 28.143 0c7.778 7.779 7.778 20.365 0 28.143s-20.365 7.779-28.143 0z m-591.92 591.918c-7.777-7.778-7.777-20.364 0-28.142 7.779-7.779 20.366-7.779 28.144 0 7.778 7.778 7.778 20.364 0 28.142-7.708 7.708-20.365 7.779-28.143 0z m-9.404-591.919c-7.778-7.778-7.778-20.364 0-28.143s20.365-7.778 28.143 0c7.778 7.779 7.778 20.365 0 28.143s-20.364 7.779-28.143 0z m300.733-75.165c-7.778-7.778-7.778-20.365 0-28.143s20.365-7.778 28.143 0c7.778 7.778 7.778 20.365 0 28.143s-20.365 7.778-28.143 0z m291.186 667.084c-7.778-7.778-7.778-20.364 0-28.142s20.365-7.779 28.143 0 7.778 20.364 0 28.142-20.364 7.779-28.143 0z m75.237-300.661c-7.779-7.779-7.779-20.365 0-28.143s20.364-7.778 28.142 0c7.779 7.778 7.779 20.364 0 28.143s-20.364 7.778-28.142 0z m-732.846 0c-7.778-7.779-7.778-20.365 0-28.143s20.365-7.778 28.143 0c7.778 7.778 7.778 20.364 0 28.143s-20.365 7.778-28.143 0z m427.658 51.901c-23.9 28.709-22.415 71.489 4.526 98.43s69.72 28.425 98.358 4.454l56.569 56.569 18.809-18.81-75.095-75.094-9.404 9.405c-1.697 1.414-3.112 3.11-4.667 4.666-18.173 18.173-47.589 18.173-65.761 0s-18.173-47.588 0-65.76c1.626-1.627 3.323-3.041 5.02-4.314l9.051-9.758-56.427-56.427 37.76-37.76a72.863 72.863 0 0 0 4.454 4.88c28.568 28.567 74.812 28.567 103.38 0s28.567-74.812 0-103.38a71.238 71.238 0 0 0-4.88-4.454l65.973-65.973-18.809-18.81-84.57 84.57 18.81 18.81c1.414 1.697 3.11 3.11 4.666 4.667 18.173 18.172 18.173 47.588 0 65.76s-47.588 18.173-65.76 0c-1.627-1.626-3.041-3.323-4.314-5.02l-19.162-18.455-56.357 56.356-56.568-56.569a72.863 72.863 0 0 0 4.879-4.454c28.567-28.567 28.567-74.812 0-103.38-28.568-28.566-74.812-28.566-103.38 0a71.238 71.238 0 0 0-4.454 4.88l-56.569-56.569-18.809 18.81 75.166 75.165 18.809-18.81c1.697-1.414 3.111-3.11 4.667-4.666 18.172-18.173 47.588-18.173 65.76 0 18.173 18.172 18.173 47.588 0 65.76-1.626 1.627-3.323 3.041-5.02 4.314l-18.455 19.163 75.165 75.165-56.568 56.569c-28.709-23.9-71.489-22.416-98.43 4.525s-28.425 69.72-4.525 98.43l-47.164 47.163 18.809 18.81 65.76-65.762-9.404-9.404c-1.414-1.697-3.111-3.111-4.667-4.667-18.172-18.173-18.172-47.588 0-65.76s47.589-18.174 65.761 0c1.627 1.625 3.04 3.322 4.314 5.02l9.758 9.05 75.165-75.165 37.83 37.83zM498.64 892.498c-7.778-7.778-7.778-20.364 0-28.143s20.365-7.778 28.143 0c7.778 7.779 7.778 20.365 0 28.143s-20.365 7.779-28.143 0z" fill="#666666" /></svg>