<?xml version="1.0" standalone="no"?><!DOCTYPE svg PUBLIC "-//W3C//DTD SVG 1.1//EN" "http://www.w3.org/Graphics/SVG/1.1/DTD/svg11.dtd"><svg class="icon" width="48px" height="48.00px" viewBox="0 0 1024 1024" version="1.1" xmlns="http://www.w3.org/2000/svg"><path d="M436.864 97.856a8.256 8.256 0 0 1-3.104-0.608c-8.736-3.52-17.792-6.944-26.912-10.144a8.32 8.32 0 0 1-5.088-10.624 8.288 8.288 0 0 1 10.624-5.088c9.344 3.296 18.624 6.784 27.616 10.4a8.32 8.32 0 0 1-3.136 16.064zM681.504 252.448a8.256 8.256 0 0 1-5.472-2.048 1033.536 1033.536 0 0 0-43.168-35.744 8.32 8.32 0 0 1 10.24-13.12c14.752 11.552 29.536 23.776 43.904 36.352a8.32 8.32 0 0 1-5.504 14.56z m-75.84-60.256a8.288 8.288 0 0 1-4.832-1.568 914.784 914.784 0 0 0-46.496-31.232 8.32 8.32 0 0 1 8.864-14.112c15.872 9.952 31.776 20.64 47.36 31.808a8.32 8.32 0 0 1-4.896 15.104z m-81.6-52.16a8.16 8.16 0 0 1-4.064-1.088c-16.48-9.28-33.184-17.92-49.664-25.696a8.32 8.32 0 1 1 7.104-15.04c16.832 7.936 33.92 16.768 50.72 26.272a8.32 8.32 0 0 1-4.096 15.552zM732.32 300a8.256 8.256 0 0 1-5.888-2.432c-6.848-6.848-13.76-13.568-20.736-20.192a8.32 8.32 0 0 1 11.456-12.096c7.072 6.688 14.08 13.504 21.056 20.48a8.32 8.32 0 0 1 0 11.776 8.224 8.224 0 0 1-5.888 2.464z" fill="#1E2432" /><path d="M762.88 981.024c-9.28 0-18.816-0.384-28.544-1.152a8.32 8.32 0 0 1-7.616-8.96 8.32 8.32 0 0 1 8.96-7.648c74.4 6.016 135.2-12.128 175.904-52.288 116.736-119.616 34.08-394.112-185.184-613.408a8.32 8.32 0 0 1 0-11.776 8.32 8.32 0 0 1 11.776 0c224.992 224.992 307.872 508.832 186.496 635.584l-0.48 0.544-1.536 1.568-0.672 0.704a12.736 12.736 0 0 1-0.704 0.64c-38.752 36.992-93.024 56.192-158.4 56.192zM291.712 740.608a8.256 8.256 0 0 1-5.888-2.432c-224.96-224.992-307.872-508.768-186.56-635.52a4.928 4.928 0 0 1 0.544-0.608l2.016-2.016 0.224-0.224 0.672-0.608c44.768-42.848 110.272-61.824 189.728-54.88a8.32 8.32 0 0 1 7.584 9.024 8.256 8.256 0 0 1-9.024 7.552c-75.52-6.56-137.152 11.36-178.368 51.872C-4.448 232.32 78.176 507.008 297.6 726.4a8.32 8.32 0 0 1-5.888 14.208zM614.4 953.056a8.448 8.448 0 0 1-2.752-0.48 581.696 581.696 0 0 1-23.712-8.864 8.32 8.32 0 1 1 6.144-15.488c7.712 3.072 15.424 5.952 23.072 8.608a8.32 8.32 0 1 1-2.752 16.224zM550.016 926.56a8.32 8.32 0 0 1-3.552-0.8c-16-7.552-32.192-15.904-48.16-24.8a8.32 8.32 0 0 1 8.128-14.528c15.616 8.736 31.456 16.896 47.136 24.288a8.32 8.32 0 1 1-3.552 15.84z m-86.016-47.36a8.32 8.32 0 0 1-4.416-1.28 925.152 925.152 0 0 1-44.896-30.176 8.32 8.32 0 1 1 9.696-13.536c14.496 10.368 29.344 20.32 44.064 29.6a8.32 8.32 0 0 1-4.448 15.392z m-80.192-56.704a8.288 8.288 0 0 1-5.152-1.792 997.984 997.984 0 0 1-41.568-34.528 8.32 8.32 0 1 1 10.976-12.512c13.344 11.68 27.104 23.136 40.896 33.952a8.32 8.32 0 0 1-5.152 14.88z" fill="#1E2432" /><path d="M309.568 758.08a8.288 8.288 0 0 1-5.728-2.304c-6.048-5.76-12.064-11.648-18.016-17.6a8.32 8.32 0 0 1 0-11.776 8.32 8.32 0 0 1 11.776 0c5.888 5.888 11.776 11.648 17.728 17.312a8.32 8.32 0 0 1-5.76 14.368zM935.296 443.136a8.32 8.32 0 0 1-7.712-11.424c3.616-9.056 6.976-18.112 10.048-26.912a8.32 8.32 0 1 1 15.744 5.44c-3.136 9.056-6.624 18.368-10.304 27.648a8.448 8.448 0 0 1-7.776 5.248zM780.032 689.632a8.32 8.32 0 0 1-6.24-13.792c12.48-14.24 24.576-28.896 35.968-43.488a8.32 8.32 0 0 1 13.12 10.24c-11.584 14.848-23.904 29.728-36.576 44.192a8.256 8.256 0 0 1-6.272 2.848z m60.608-76.384a8.32 8.32 0 0 1-6.752-13.184c11.008-15.392 21.568-31.136 31.392-46.848a8.32 8.32 0 1 1 14.112 8.8 918.624 918.624 0 0 1-31.968 47.712 8.32 8.32 0 0 1-6.784 3.52z m52.416-82.24a8.32 8.32 0 0 1-7.264-12.384c9.344-16.64 17.984-33.472 25.76-50.048a8.32 8.32 0 0 1 15.072 7.072 791.808 791.808 0 0 1-26.336 51.136 8.288 8.288 0 0 1-7.232 4.224zM732.32 740.64a8.32 8.32 0 0 1-5.888-14.208c6.848-6.848 13.568-13.76 20.16-20.736a8.32 8.32 0 0 1 12.096 11.456c-6.688 7.072-13.536 14.112-20.48 21.056a8.448 8.448 0 0 1-5.888 2.432z" fill="#1E2432" /><path d="M260.832 981.152c-64.864 0-119.04-18.976-158.08-56.352l-0.704-0.64a12.384 12.384 0 0 1-0.64-0.672l-1.568-1.568a8.288 8.288 0 0 1-0.48-0.544c-42.88-44.736-61.888-110.24-54.976-189.696a8.32 8.32 0 0 1 16.608 1.472c-6.528 75.2 11.264 136.608 51.456 177.824 56.992 56.224 151.456 68.64 266.208 35.008 117.024-34.304 240.576-112.288 347.808-219.552a8.32 8.32 0 0 1 11.776 0 8.32 8.32 0 0 1 0 11.776c-109.184 109.216-235.232 188.672-354.912 223.776-43.84 12.832-84.96 19.168-122.496 19.168zM971.36 300.032l-0.736-0.032a8.32 8.32 0 0 1-7.552-9.024c6.56-75.328-11.232-136.832-51.552-178.08-56.992-56.128-151.424-68.512-266.112-34.912C528.352 112.352 404.832 190.336 297.6 297.568a8.32 8.32 0 0 1-11.776 0 8.32 8.32 0 0 1 0-11.776c109.184-109.216 235.232-188.672 354.912-223.776 119.52-35.04 218.944-21.824 280.576 37.152 0.224 0.192 0.48 0.384 0.672 0.608a5.728 5.728 0 0 0 0.448 0.416l1.792 1.792 0.512 0.576c42.88 44.768 61.888 110.304 54.944 189.824a8.384 8.384 0 0 1-8.32 7.648zM79.264 622.72a8.32 8.32 0 0 1-7.84-11.104c3.168-8.992 6.656-18.304 10.4-27.616a8.32 8.32 0 0 1 15.456 6.208c-3.648 9.088-7.072 18.112-10.144 26.912a8.32 8.32 0 0 1-7.872 5.6zM105.728 558.464a8.32 8.32 0 0 1-7.52-11.872c7.936-16.832 16.768-33.888 26.272-50.752a8.32 8.32 0 1 1 14.496 8.16 772.48 772.48 0 0 0-25.696 49.664 8.352 8.352 0 0 1-7.552 4.8z m46.624-84.896a8.32 8.32 0 0 1-7.04-12.736c9.952-15.872 20.64-31.776 31.808-47.36a8.32 8.32 0 1 1 13.536 9.696 907.84 907.84 0 0 0-31.232 46.496 8.32 8.32 0 0 1-7.072 3.904z m55.744-79.232a8.32 8.32 0 0 1-6.56-13.44c11.552-14.784 23.776-29.536 36.352-43.904a8.32 8.32 0 1 1 12.512 10.976c-12.352 14.112-24.384 28.64-35.744 43.168a8.32 8.32 0 0 1-6.56 3.2z" fill="#1E2432" /><path d="M271.36 320.928a8.32 8.32 0 0 1-6.048-14.048c6.688-7.072 13.536-14.08 20.48-21.056a8.32 8.32 0 0 1 11.776 11.776c-6.848 6.848-13.568 13.76-20.16 20.704a8.32 8.32 0 0 1-6.048 2.624z" fill="#1E2432" /><path d="M393.92 18.144a61.984 61.984 0 1 1-87.68 87.68 61.984 61.984 0 0 1 87.68-87.68zM630.08 1005.856a61.984 61.984 0 1 1 87.616-87.68 61.984 61.984 0 0 1-87.616 87.68zM1005.856 393.92a61.984 61.984 0 1 1-87.68-87.616 61.984 61.984 0 0 1 87.68 87.616zM18.144 630.08a61.984 61.984 0 1 1 87.68 87.616 61.984 61.984 0 0 1-87.68-87.616zM699.968 614.528H323.936a16.64 16.64 0 0 1-16.64-16.64v-227.36a16.64 16.64 0 0 1 16.64-16.64h376.032a16.64 16.64 0 0 1 16.64 16.64v227.36a16.608 16.608 0 0 1-16.64 16.64z m-359.36-33.312h342.72v-194.048h-342.72v194.048zM661.44 698.144h-298.912a16.64 16.64 0 0 1 0-33.28h298.912a16.64 16.64 0 0 1 0 33.28z" fill="#00AFCC" /></svg>