<?xml version="1.0" standalone="no"?><!DOCTYPE svg PUBLIC "-//W3C//DTD SVG 1.1//EN" "http://www.w3.org/Graphics/SVG/1.1/DTD/svg11.dtd"><svg class="icon" width="48px" height="48.00px" viewBox="0 0 1024 1024" version="1.1" xmlns="http://www.w3.org/2000/svg"><path d="M371.5072 765.5424h239.8208v26.624H371.5072v-26.624z" fill="#000333" /><path d="M438.0672 603.3408H544.768v175.5136h-106.7008v-175.5136z" fill="#FF4C3B" /><path d="M531.456 616.8576v148.48h-79.872v-148.48h79.872z m26.624-26.8288h-133.3248v201.728h133.3248v-201.728" fill="#000333" /><path d="M184.9344 285.4912h612.9664v373.1456H184.9344V285.4912z" fill="#FFFFFF" /><path d="M784.5888 298.8032v346.5216H198.2464V298.8032h586.3424z m0-26.624H198.2464c-7.168 0-13.9264 2.8672-18.8416 7.7824-4.9152 4.9152-7.7824 11.8784-7.7824 18.8416v346.5216c0 7.168 2.8672 13.9264 7.7824 18.8416 4.9152 4.9152 11.8784 7.7824 18.8416 7.7824h586.3424c7.168 0 13.9264-2.8672 18.8416-7.7824 4.9152-4.9152 7.7824-11.8784 7.7824-18.8416V298.8032c0-7.168-2.8672-13.9264-7.7824-18.8416-4.9152-5.12-11.8784-7.7824-18.8416-7.7824" fill="#000333" /><path d="M198.2464 659.8656c-3.4816 0-6.9632-1.4336-9.4208-3.8912-2.4576-2.4576-3.8912-5.9392-3.8912-9.4208v-50.9952h612.9664v50.9952c0 3.4816-1.4336 6.9632-3.8912 9.4208-2.4576 2.4576-5.9392 3.8912-9.4208 3.8912H198.2464z" fill="#FF4C3B" /><path d="M784.5888 608.8704v37.6832H198.2464v-37.6832h586.3424z m26.624-26.624H171.6224v64.3072c0 7.168 2.8672 13.9264 7.7824 18.8416 4.9152 4.9152 11.8784 7.7824 18.8416 7.7824h586.3424c7.168 0 13.9264-2.8672 18.8416-7.7824 4.9152-4.9152 7.7824-11.8784 7.7824-18.8416v-64.3072" fill="#000333" /><path d="M801.3824 514.6624h-6.9632c-1.4336 0-2.4576-1.024-2.4576-2.4576s1.024-2.4576 2.4576-2.4576h6.9632c1.4336 0 2.4576 1.024 2.4576 2.4576s-1.024 2.4576-2.4576 2.4576z m0 58.7776h-6.9632c-1.4336 0-2.4576-1.024-2.4576-2.4576s1.024-2.4576 2.4576-2.4576h6.9632c1.4336 0 2.4576 1.024 2.4576 2.4576s-1.024 2.4576-2.4576 2.4576z m-2.2528-47.104h-4.7104c-1.4336 0-2.4576-1.024-2.4576-2.4576s1.024-2.4576 2.4576-2.4576h4.7104c1.4336 0 2.4576 1.024 2.4576 2.4576s-1.024 2.4576-2.4576 2.4576z m0 11.8784h-4.7104c-1.4336 0-2.4576-1.024-2.4576-2.4576s1.024-2.4576 2.4576-2.4576h4.7104c1.4336 0 2.4576 1.024 2.4576 2.4576s-1.024 2.4576-2.4576 2.4576z m0 11.6736h-4.7104c-1.4336 0-2.4576-1.024-2.4576-2.4576s1.024-2.4576 2.4576-2.4576h4.7104c1.4336 0 2.4576 1.024 2.4576 2.4576s-1.024 2.4576-2.4576 2.4576z m0 11.8784h-4.7104c-1.4336 0-2.4576-1.024-2.4576-2.4576s1.024-2.4576 2.4576-2.4576h4.7104c1.4336 0 2.4576 1.024 2.4576 2.4576s-1.024 2.4576-2.4576 2.4576z m2.2528 23.3472h-6.9632c-1.4336 0-2.4576-1.024-2.4576-2.4576s1.024-2.4576 2.4576-2.4576h6.9632c1.4336 0 2.4576 1.024 2.4576 2.4576s-1.024 2.4576-2.4576 2.4576z m0 58.9824h-6.9632c-1.4336 0-2.4576-1.024-2.4576-2.4576s1.024-2.4576 2.4576-2.4576h6.9632c1.4336 0 2.4576 1.024 2.4576 2.4576 0 1.2288-1.024 2.4576-2.4576 2.4576z m-2.2528-47.104h-4.7104c-1.4336 0-2.4576-1.024-2.4576-2.4576s1.024-2.4576 2.4576-2.4576h4.7104c1.4336 0 2.4576 1.024 2.4576 2.4576s-1.024 2.4576-2.4576 2.4576z m0 11.6736h-4.7104c-1.4336 0-2.4576-1.024-2.4576-2.4576s1.024-2.4576 2.4576-2.4576h4.7104c1.4336 0 2.4576 1.024 2.4576 2.4576s-1.024 2.4576-2.4576 2.4576z m0 11.8784h-4.7104c-1.4336 0-2.4576-1.024-2.4576-2.4576s1.024-2.4576 2.4576-2.4576h4.7104c1.4336 0 2.4576 1.024 2.4576 2.4576 0 1.2288-1.024 2.4576-2.4576 2.4576z m0 11.6736h-4.7104c-1.4336 0-2.4576-1.024-2.4576-2.4576s1.024-2.4576 2.4576-2.4576h4.7104c1.4336 0 2.4576 1.024 2.4576 2.4576s-1.024 2.4576-2.4576 2.4576z" fill="#000333" /><path d="M808.3456 261.12l14.7456 14.7456c20.48 20.48 20.48 53.4528 0 73.9328s-53.4528 20.48-73.9328 0l-14.7456-14.7456c-20.48-20.48-20.48-53.4528 0-73.9328s53.4528-20.48 73.9328 0z" fill="#FFFFFF" /><path d="M789.7088 372.9408c-16.5888 0-32.3584-6.5536-44.032-18.2272l-16.384-16.384c-24.1664-24.1664-24.1664-63.6928 0-88.064 11.6736-11.6736 27.4432-18.2272 44.032-18.2272s32.3584 6.5536 44.032 18.2272l16.384 16.384c24.1664 24.1664 24.1664 63.6928 0 88.064-11.6736 11.8784-27.4432 18.2272-44.032 18.2272z m-16.384-132.3008c-14.336 0-27.8528 5.5296-37.888 15.7696-20.8896 20.8896-20.8896 54.8864 0 75.9808l16.384 16.384c10.0352 10.0352 23.552 15.7696 37.888 15.7696s27.8528-5.5296 37.888-15.7696c20.8896-20.8896 20.8896-54.8864 0-75.9808l-16.384-16.384c-10.0352-10.0352-23.552-15.7696-37.888-15.7696z" fill="#2A3946" /><path d="M668.0576 408.3712v-77.6192c0-2.048 0.8192-4.096 2.2528-5.5296l66.1504-66.1504c3.072-3.072 7.9872-3.072 10.8544 0l77.6192 77.6192c3.072 3.072 3.072 7.9872 0 10.8544L758.784 413.696c-1.4336 1.4336-3.4816 2.2528-5.5296 2.2528h-77.6192c-4.3008 0.2048-7.5776-3.2768-7.5776-7.5776z" fill="#FFD034" /><path d="M753.4592 429.8752h-86.2208c-7.168 0-12.9024-5.7344-12.9024-12.9024v-86.2208c0-3.4816 1.4336-6.7584 3.6864-9.0112l73.3184-73.3184c4.9152-4.9152 13.312-4.9152 18.2272 0l86.2208 86.2208c5.12 5.12 5.12 13.1072 0 18.2272L762.4704 425.984c-2.2528 2.4576-5.7344 3.8912-9.0112 3.8912z m-12.9024-176.7424c-1.2288 0-2.2528 0.4096-3.072 1.2288L664.1664 327.68c-0.8192 0.8192-1.2288 1.8432-1.2288 3.072v86.2208c0 2.2528 1.8432 4.3008 4.3008 4.3008h86.2208c1.024 0 2.2528-0.4096 3.072-1.2288l73.3184-73.3184c1.6384-1.6384 1.6384-4.3008 0-6.144l-86.2208-86.2208c-0.8192-0.8192-1.8432-1.2288-3.072-1.2288z" fill="#2A3946" /><path d="M668.0576 416.1536v-59.1872l59.1872 59.1872h-59.1872z m4.9152-93.5936l88.6784 88.6784-4.9152 4.9152-88.6784-88.6784 4.9152-4.9152z" fill="#2A3946" /><path d="M768.8192 280.7808l4.9152 4.9152-73.9328 73.9328-4.9152-4.9152 73.9328-73.9328z m29.696 29.4912l4.9152 4.9152-73.9328 73.9328-4.9152-4.9152 73.9328-73.9328z" fill="#2A3946" /><path d="M521.216 353.8944h66.3552v202.752h-66.3552v-202.752z" fill="#FFFFFF" /><path d="M587.5712 559.5136H514.048c-1.6384 0-2.8672-1.2288-2.8672-2.8672v-202.5472c0-1.6384 1.2288-2.8672 2.8672-2.8672h73.5232c1.6384 0 2.8672 1.2288 2.8672 2.8672v202.5472c0 1.6384-1.4336 2.8672-2.8672 2.8672z m-70.8608-5.9392h67.7888v-196.8128h-67.7888v196.8128z" fill="#000333" /><path d="M526.7456 375.1936h-8.192c-1.6384 0-2.8672-1.2288-2.8672-2.8672s1.2288-2.8672 2.8672-2.8672h8.192c1.6384 0 2.8672 1.2288 2.8672 2.8672s-1.2288 2.8672-2.8672 2.8672z m0 70.0416h-8.192c-1.6384 0-2.8672-1.2288-2.8672-2.8672 0-1.6384 1.2288-2.8672 2.8672-2.8672h8.192c1.6384 0 2.8672 1.2288 2.8672 2.8672 0 1.4336-1.2288 2.8672-2.8672 2.8672z m-2.6624-55.9104h-5.5296c-1.6384 0-2.8672-1.2288-2.8672-2.8672 0-1.6384 1.2288-2.8672 2.8672-2.8672h5.5296c1.6384 0 2.8672 1.2288 2.8672 2.8672 0 1.4336-1.2288 2.8672-2.8672 2.8672z m0 13.9264h-5.5296c-1.6384 0-2.8672-1.2288-2.8672-2.8672 0-1.6384 1.2288-2.8672 2.8672-2.8672h5.5296c1.6384 0 2.8672 1.2288 2.8672 2.8672 0 1.6384-1.2288 2.8672-2.8672 2.8672z m0 13.9264h-5.5296c-1.6384 0-2.8672-1.2288-2.8672-2.8672 0-1.6384 1.2288-2.8672 2.8672-2.8672h5.5296c1.6384 0 2.8672 1.2288 2.8672 2.8672 0 1.6384-1.2288 2.8672-2.8672 2.8672z m0 13.9264h-5.5296c-1.6384 0-2.8672-1.2288-2.8672-2.8672 0-1.6384 1.2288-2.8672 2.8672-2.8672h5.5296c1.6384 0 2.8672 1.2288 2.8672 2.8672 0 1.6384-1.2288 2.8672-2.8672 2.8672z m2.6624 28.0576h-8.192c-1.6384 0-2.8672-1.2288-2.8672-2.8672s1.2288-2.8672 2.8672-2.8672h8.192c1.6384 0 2.8672 1.2288 2.8672 2.8672 0 1.6384-1.2288 2.8672-2.8672 2.8672z m0 69.8368h-8.192c-1.6384 0-2.8672-1.2288-2.8672-2.8672 0-1.6384 1.2288-2.8672 2.8672-2.8672h8.192c1.6384 0 2.8672 1.2288 2.8672 2.8672 0 1.6384-1.2288 2.8672-2.8672 2.8672z m-2.6624-55.9104h-5.5296c-1.6384 0-2.8672-1.2288-2.8672-2.8672s1.2288-2.8672 2.8672-2.8672h5.5296c1.6384 0 2.8672 1.2288 2.8672 2.8672s-1.2288 2.8672-2.8672 2.8672z m0 13.9264h-5.5296c-1.6384 0-2.8672-1.2288-2.8672-2.8672s1.2288-2.8672 2.8672-2.8672h5.5296c1.6384 0 2.8672 1.2288 2.8672 2.8672s-1.2288 2.8672-2.8672 2.8672z m0 14.1312h-5.5296c-1.6384 0-2.8672-1.2288-2.8672-2.8672s1.2288-2.8672 2.8672-2.8672h5.5296c1.6384 0 2.8672 1.2288 2.8672 2.8672s-1.2288 2.8672-2.8672 2.8672z m0 13.9264h-5.5296c-1.6384 0-2.8672-1.2288-2.8672-2.8672 0-1.6384 1.2288-2.8672 2.8672-2.8672h5.5296c1.6384 0 2.8672 1.2288 2.8672 2.8672 0 1.6384-1.2288 2.8672-2.8672 2.8672z" fill="#000333" /><path d="M413.4912 359.2192v201.1136h192.3072l-192.3072-201.1136z m41.1648 107.52l48.128 50.3808H454.656v-50.3808z" fill="#0072BB" /><path d="M606.8224 559.5136h-201.1136c-1.6384 0-2.8672-1.2288-2.8672-2.8672v-201.1136c0-1.6384 1.2288-2.8672 2.8672-2.8672 0.8192 0 1.4336 0.4096 2.048 0.8192l201.1136 201.1136c0.6144 0.6144 0.8192 1.2288 0.8192 2.048 0 1.6384-1.4336 2.8672-2.8672 2.8672z m-198.2464-5.9392h191.0784L408.576 362.496v191.0784z m90.5216-37.2736h-50.3808c-1.6384 0-2.8672-1.2288-2.8672-2.8672v-50.3808c0-1.6384 1.2288-2.8672 2.8672-2.8672 0.8192 0 1.4336 0.4096 2.048 0.8192l50.3808 50.3808c0.6144 0.6144 0.8192 1.2288 0.8192 2.048 0 1.6384-1.2288 2.8672-2.8672 2.8672z m-47.3088-5.7344h40.3456l-40.3456-40.3456v40.3456z" fill="#000333" /><path d="M418.4064 389.3248h-8.192c-1.6384 0-2.8672-1.2288-2.8672-2.8672 0-1.6384 1.2288-2.8672 2.8672-2.8672h8.192c1.6384 0 2.8672 1.2288 2.8672 2.8672 0.2048 1.4336-1.2288 2.8672-2.8672 2.8672z m0 69.8368h-8.192c-1.6384 0-2.8672-1.2288-2.8672-2.8672s1.2288-2.8672 2.8672-2.8672h8.192c1.6384 0 2.8672 1.2288 2.8672 2.8672 0.2048 1.6384-1.2288 2.8672-2.8672 2.8672z m-2.6624-55.9104h-5.5296c-1.6384 0-2.8672-1.2288-2.8672-2.8672 0-1.6384 1.2288-2.8672 2.8672-2.8672h5.5296c1.6384 0 2.8672 1.2288 2.8672 2.8672 0.2048 1.6384-1.2288 2.8672-2.8672 2.8672z m0 13.9264h-5.5296c-1.6384 0-2.8672-1.2288-2.8672-2.8672s1.2288-2.8672 2.8672-2.8672h5.5296c1.6384 0 2.8672 1.2288 2.8672 2.8672s-1.2288 2.8672-2.8672 2.8672z m0 13.9264h-5.5296c-1.6384 0-2.8672-1.2288-2.8672-2.8672 0-1.6384 1.2288-2.8672 2.8672-2.8672h5.5296c1.6384 0 2.8672 1.2288 2.8672 2.8672 0.2048 1.6384-1.2288 2.8672-2.8672 2.8672z m0 14.1312h-5.5296c-1.6384 0-2.8672-1.2288-2.8672-2.8672 0-1.6384 1.2288-2.8672 2.8672-2.8672h5.5296c1.6384 0 2.8672 1.2288 2.8672 2.8672 0.2048 1.4336-1.2288 2.8672-2.8672 2.8672z m2.6624 27.8528h-8.192c-1.6384 0-2.8672-1.2288-2.8672-2.8672s1.2288-2.8672 2.8672-2.8672h8.192c1.6384 0 2.8672 1.2288 2.8672 2.8672s-1.2288 2.8672-2.8672 2.8672z m0 69.8368h-8.192c-1.6384 0-2.8672-1.2288-2.8672-2.8672 0-1.6384 1.2288-2.8672 2.8672-2.8672h8.192c1.6384 0 2.8672 1.2288 2.8672 2.8672 0.2048 1.6384-1.2288 2.8672-2.8672 2.8672z m-2.6624-55.9104h-5.5296c-1.6384 0-2.8672-1.2288-2.8672-2.8672s1.2288-2.8672 2.8672-2.8672h5.5296c1.6384 0 2.8672 1.2288 2.8672 2.8672s-1.2288 2.8672-2.8672 2.8672z m0 14.1312h-5.5296c-1.6384 0-2.8672-1.2288-2.8672-2.8672 0-1.6384 1.2288-2.8672 2.8672-2.8672h5.5296c1.6384 0 2.8672 1.2288 2.8672 2.8672 0.2048 1.4336-1.2288 2.8672-2.8672 2.8672z m0 13.9264h-5.5296c-1.6384 0-2.8672-1.2288-2.8672-2.8672 0-1.6384 1.2288-2.8672 2.8672-2.8672h5.5296c1.6384 0 2.8672 1.2288 2.8672 2.8672 0.2048 1.6384-1.2288 2.8672-2.8672 2.8672z m0 13.9264h-5.5296c-1.6384 0-2.8672-1.2288-2.8672-2.8672 0-1.6384 1.2288-2.8672 2.8672-2.8672h5.5296c1.6384 0 2.8672 1.2288 2.8672 2.8672 0.2048 1.6384-1.2288 2.8672-2.8672 2.8672zM371.5072 765.5424h239.8208v26.624H371.5072v-26.624z" fill="#000333" /><path d="M438.0672 603.3408H544.768v175.5136h-106.7008v-175.5136z" fill="#FFF" /><path d="M531.456 616.8576v148.48h-79.872v-148.48h79.872z m26.624-26.8288h-133.3248v201.728h133.3248v-201.728" fill="#000333" /><path d="M184.9344 285.4912h612.9664v373.1456H184.9344V285.4912z" fill="#FFFFFF" /><path d="M784.5888 298.8032v346.5216H198.2464V298.8032h586.3424z m0-26.624H198.2464c-7.168 0-13.9264 2.8672-18.8416 7.7824-4.9152 4.9152-7.7824 11.8784-7.7824 18.8416v346.5216c0 7.168 2.8672 13.9264 7.7824 18.8416 4.9152 4.9152 11.8784 7.7824 18.8416 7.7824h586.3424c7.168 0 13.9264-2.8672 18.8416-7.7824 4.9152-4.9152 7.7824-11.8784 7.7824-18.8416V298.8032c0-7.168-2.8672-13.9264-7.7824-18.8416-4.9152-5.12-11.8784-7.7824-18.8416-7.7824" fill="#000333" /><path d="M198.2464 659.8656c-3.4816 0-6.9632-1.4336-9.4208-3.8912-2.4576-2.4576-3.8912-5.9392-3.8912-9.4208v-50.9952h612.9664v50.9952c0 3.4816-1.4336 6.9632-3.8912 9.4208-2.4576 2.4576-5.9392 3.8912-9.4208 3.8912H198.2464z" fill="#FFF" /><path d="M784.5888 608.8704v37.6832H198.2464v-37.6832h586.3424z m26.624-26.624H171.6224v64.3072c0 7.168 2.8672 13.9264 7.7824 18.8416 4.9152 4.9152 11.8784 7.7824 18.8416 7.7824h586.3424c7.168 0 13.9264-2.8672 18.8416-7.7824 4.9152-4.9152 7.7824-11.8784 7.7824-18.8416v-64.3072" fill="#000333" /><path d="M801.3824 514.6624h-6.9632c-1.4336 0-2.4576-1.024-2.4576-2.4576s1.024-2.4576 2.4576-2.4576h6.9632c1.4336 0 2.4576 1.024 2.4576 2.4576s-1.024 2.4576-2.4576 2.4576z m0 58.7776h-6.9632c-1.4336 0-2.4576-1.024-2.4576-2.4576s1.024-2.4576 2.4576-2.4576h6.9632c1.4336 0 2.4576 1.024 2.4576 2.4576s-1.024 2.4576-2.4576 2.4576z m-2.2528-47.104h-4.7104c-1.4336 0-2.4576-1.024-2.4576-2.4576s1.024-2.4576 2.4576-2.4576h4.7104c1.4336 0 2.4576 1.024 2.4576 2.4576s-1.024 2.4576-2.4576 2.4576z m0 11.8784h-4.7104c-1.4336 0-2.4576-1.024-2.4576-2.4576s1.024-2.4576 2.4576-2.4576h4.7104c1.4336 0 2.4576 1.024 2.4576 2.4576s-1.024 2.4576-2.4576 2.4576z m0 11.6736h-4.7104c-1.4336 0-2.4576-1.024-2.4576-2.4576s1.024-2.4576 2.4576-2.4576h4.7104c1.4336 0 2.4576 1.024 2.4576 2.4576s-1.024 2.4576-2.4576 2.4576z m0 11.8784h-4.7104c-1.4336 0-2.4576-1.024-2.4576-2.4576s1.024-2.4576 2.4576-2.4576h4.7104c1.4336 0 2.4576 1.024 2.4576 2.4576s-1.024 2.4576-2.4576 2.4576z m2.2528 23.3472h-6.9632c-1.4336 0-2.4576-1.024-2.4576-2.4576s1.024-2.4576 2.4576-2.4576h6.9632c1.4336 0 2.4576 1.024 2.4576 2.4576s-1.024 2.4576-2.4576 2.4576z m0 58.9824h-6.9632c-1.4336 0-2.4576-1.024-2.4576-2.4576s1.024-2.4576 2.4576-2.4576h6.9632c1.4336 0 2.4576 1.024 2.4576 2.4576 0 1.2288-1.024 2.4576-2.4576 2.4576z m-2.2528-47.104h-4.7104c-1.4336 0-2.4576-1.024-2.4576-2.4576s1.024-2.4576 2.4576-2.4576h4.7104c1.4336 0 2.4576 1.024 2.4576 2.4576s-1.024 2.4576-2.4576 2.4576z m0 11.6736h-4.7104c-1.4336 0-2.4576-1.024-2.4576-2.4576s1.024-2.4576 2.4576-2.4576h4.7104c1.4336 0 2.4576 1.024 2.4576 2.4576s-1.024 2.4576-2.4576 2.4576z m0 11.8784h-4.7104c-1.4336 0-2.4576-1.024-2.4576-2.4576s1.024-2.4576 2.4576-2.4576h4.7104c1.4336 0 2.4576 1.024 2.4576 2.4576 0 1.2288-1.024 2.4576-2.4576 2.4576z m0 11.6736h-4.7104c-1.4336 0-2.4576-1.024-2.4576-2.4576s1.024-2.4576 2.4576-2.4576h4.7104c1.4336 0 2.4576 1.024 2.4576 2.4576s-1.024 2.4576-2.4576 2.4576z" fill="#000333" /><path d="M808.3456 261.12l14.7456 14.7456c20.48 20.48 20.48 53.4528 0 73.9328s-53.4528 20.48-73.9328 0l-14.7456-14.7456c-20.48-20.48-20.48-53.4528 0-73.9328s53.4528-20.48 73.9328 0z" fill="#FFFFFF" /><path d="M789.7088 372.9408c-16.5888 0-32.3584-6.5536-44.032-18.2272l-16.384-16.384c-24.1664-24.1664-24.1664-63.6928 0-88.064 11.6736-11.6736 27.4432-18.2272 44.032-18.2272s32.3584 6.5536 44.032 18.2272l16.384 16.384c24.1664 24.1664 24.1664 63.6928 0 88.064-11.6736 11.8784-27.4432 18.2272-44.032 18.2272z m-16.384-132.3008c-14.336 0-27.8528 5.5296-37.888 15.7696-20.8896 20.8896-20.8896 54.8864 0 75.9808l16.384 16.384c10.0352 10.0352 23.552 15.7696 37.888 15.7696s27.8528-5.5296 37.888-15.7696c20.8896-20.8896 20.8896-54.8864 0-75.9808l-16.384-16.384c-10.0352-10.0352-23.552-15.7696-37.888-15.7696z" fill="#2A3946" /><path d="M668.0576 408.3712v-77.6192c0-2.048 0.8192-4.096 2.2528-5.5296l66.1504-66.1504c3.072-3.072 7.9872-3.072 10.8544 0l77.6192 77.6192c3.072 3.072 3.072 7.9872 0 10.8544L758.784 413.696c-1.4336 1.4336-3.4816 2.2528-5.5296 2.2528h-77.6192c-4.3008 0.2048-7.5776-3.2768-7.5776-7.5776z" fill="#FFD034" /><path d="M753.4592 429.8752h-86.2208c-7.168 0-12.9024-5.7344-12.9024-12.9024v-86.2208c0-3.4816 1.4336-6.7584 3.6864-9.0112l73.3184-73.3184c4.9152-4.9152 13.312-4.9152 18.2272 0l86.2208 86.2208c5.12 5.12 5.12 13.1072 0 18.2272L762.4704 425.984c-2.2528 2.4576-5.7344 3.8912-9.0112 3.8912z m-12.9024-176.7424c-1.2288 0-2.2528 0.4096-3.072 1.2288L664.1664 327.68c-0.8192 0.8192-1.2288 1.8432-1.2288 3.072v86.2208c0 2.2528 1.8432 4.3008 4.3008 4.3008h86.2208c1.024 0 2.2528-0.4096 3.072-1.2288l73.3184-73.3184c1.6384-1.6384 1.6384-4.3008 0-6.144l-86.2208-86.2208c-0.8192-0.8192-1.8432-1.2288-3.072-1.2288z" fill="#2A3946" /><path d="M668.0576 416.1536v-59.1872l59.1872 59.1872h-59.1872z m4.9152-93.5936l88.6784 88.6784-4.9152 4.9152-88.6784-88.6784 4.9152-4.9152z" fill="#2A3946" /><path d="M768.8192 280.7808l4.9152 4.9152-73.9328 73.9328-4.9152-4.9152 73.9328-73.9328z m29.696 29.4912l4.9152 4.9152-73.9328 73.9328-4.9152-4.9152 73.9328-73.9328z" fill="#2A3946" /><path d="M521.216 353.8944h66.3552v202.752h-66.3552v-202.752z" fill="#FFFFFF" /><path d="M587.5712 559.5136H514.048c-1.6384 0-2.8672-1.2288-2.8672-2.8672v-202.5472c0-1.6384 1.2288-2.8672 2.8672-2.8672h73.5232c1.6384 0 2.8672 1.2288 2.8672 2.8672v202.5472c0 1.6384-1.4336 2.8672-2.8672 2.8672z m-70.8608-5.9392h67.7888v-196.8128h-67.7888v196.8128z" fill="#000333" /><path d="M526.7456 375.1936h-8.192c-1.6384 0-2.8672-1.2288-2.8672-2.8672s1.2288-2.8672 2.8672-2.8672h8.192c1.6384 0 2.8672 1.2288 2.8672 2.8672s-1.2288 2.8672-2.8672 2.8672z m0 70.0416h-8.192c-1.6384 0-2.8672-1.2288-2.8672-2.8672 0-1.6384 1.2288-2.8672 2.8672-2.8672h8.192c1.6384 0 2.8672 1.2288 2.8672 2.8672 0 1.4336-1.2288 2.8672-2.8672 2.8672z m-2.6624-55.9104h-5.5296c-1.6384 0-2.8672-1.2288-2.8672-2.8672 0-1.6384 1.2288-2.8672 2.8672-2.8672h5.5296c1.6384 0 2.8672 1.2288 2.8672 2.8672 0 1.4336-1.2288 2.8672-2.8672 2.8672z m0 13.9264h-5.5296c-1.6384 0-2.8672-1.2288-2.8672-2.8672 0-1.6384 1.2288-2.8672 2.8672-2.8672h5.5296c1.6384 0 2.8672 1.2288 2.8672 2.8672 0 1.6384-1.2288 2.8672-2.8672 2.8672z m0 13.9264h-5.5296c-1.6384 0-2.8672-1.2288-2.8672-2.8672 0-1.6384 1.2288-2.8672 2.8672-2.8672h5.5296c1.6384 0 2.8672 1.2288 2.8672 2.8672 0 1.6384-1.2288 2.8672-2.8672 2.8672z m0 13.9264h-5.5296c-1.6384 0-2.8672-1.2288-2.8672-2.8672 0-1.6384 1.2288-2.8672 2.8672-2.8672h5.5296c1.6384 0 2.8672 1.2288 2.8672 2.8672 0 1.6384-1.2288 2.8672-2.8672 2.8672z m2.6624 28.0576h-8.192c-1.6384 0-2.8672-1.2288-2.8672-2.8672s1.2288-2.8672 2.8672-2.8672h8.192c1.6384 0 2.8672 1.2288 2.8672 2.8672 0 1.6384-1.2288 2.8672-2.8672 2.8672z m0 69.8368h-8.192c-1.6384 0-2.8672-1.2288-2.8672-2.8672 0-1.6384 1.2288-2.8672 2.8672-2.8672h8.192c1.6384 0 2.8672 1.2288 2.8672 2.8672 0 1.6384-1.2288 2.8672-2.8672 2.8672z m-2.6624-55.9104h-5.5296c-1.6384 0-2.8672-1.2288-2.8672-2.8672s1.2288-2.8672 2.8672-2.8672h5.5296c1.6384 0 2.8672 1.2288 2.8672 2.8672s-1.2288 2.8672-2.8672 2.8672z m0 13.9264h-5.5296c-1.6384 0-2.8672-1.2288-2.8672-2.8672s1.2288-2.8672 2.8672-2.8672h5.5296c1.6384 0 2.8672 1.2288 2.8672 2.8672s-1.2288 2.8672-2.8672 2.8672z m0 14.1312h-5.5296c-1.6384 0-2.8672-1.2288-2.8672-2.8672s1.2288-2.8672 2.8672-2.8672h5.5296c1.6384 0 2.8672 1.2288 2.8672 2.8672s-1.2288 2.8672-2.8672 2.8672z m0 13.9264h-5.5296c-1.6384 0-2.8672-1.2288-2.8672-2.8672 0-1.6384 1.2288-2.8672 2.8672-2.8672h5.5296c1.6384 0 2.8672 1.2288 2.8672 2.8672 0 1.6384-1.2288 2.8672-2.8672 2.8672z" fill="#000333" /><path d="M413.4912 359.2192v201.1136h192.3072l-192.3072-201.1136z m41.1648 107.52l48.128 50.3808H454.656v-50.3808z" fill="#0072BB" /><path d="M606.8224 559.5136h-201.1136c-1.6384 0-2.8672-1.2288-2.8672-2.8672v-201.1136c0-1.6384 1.2288-2.8672 2.8672-2.8672 0.8192 0 1.4336 0.4096 2.048 0.8192l201.1136 201.1136c0.6144 0.6144 0.8192 1.2288 0.8192 2.048 0 1.6384-1.4336 2.8672-2.8672 2.8672z m-198.2464-5.9392h191.0784L408.576 362.496v191.0784z m90.5216-37.2736h-50.3808c-1.6384 0-2.8672-1.2288-2.8672-2.8672v-50.3808c0-1.6384 1.2288-2.8672 2.8672-2.8672 0.8192 0 1.4336 0.4096 2.048 0.8192l50.3808 50.3808c0.6144 0.6144 0.8192 1.2288 0.8192 2.048 0 1.6384-1.2288 2.8672-2.8672 2.8672z m-47.3088-5.7344h40.3456l-40.3456-40.3456v40.3456z" fill="#000333" /><path d="M418.4064 389.3248h-8.192c-1.6384 0-2.8672-1.2288-2.8672-2.8672 0-1.6384 1.2288-2.8672 2.8672-2.8672h8.192c1.6384 0 2.8672 1.2288 2.8672 2.8672 0.2048 1.4336-1.2288 2.8672-2.8672 2.8672z m0 69.8368h-8.192c-1.6384 0-2.8672-1.2288-2.8672-2.8672s1.2288-2.8672 2.8672-2.8672h8.192c1.6384 0 2.8672 1.2288 2.8672 2.8672 0.2048 1.6384-1.2288 2.8672-2.8672 2.8672z m-2.6624-55.9104h-5.5296c-1.6384 0-2.8672-1.2288-2.8672-2.8672 0-1.6384 1.2288-2.8672 2.8672-2.8672h5.5296c1.6384 0 2.8672 1.2288 2.8672 2.8672 0.2048 1.6384-1.2288 2.8672-2.8672 2.8672z m0 13.9264h-5.5296c-1.6384 0-2.8672-1.2288-2.8672-2.8672s1.2288-2.8672 2.8672-2.8672h5.5296c1.6384 0 2.8672 1.2288 2.8672 2.8672s-1.2288 2.8672-2.8672 2.8672z m0 13.9264h-5.5296c-1.6384 0-2.8672-1.2288-2.8672-2.8672 0-1.6384 1.2288-2.8672 2.8672-2.8672h5.5296c1.6384 0 2.8672 1.2288 2.8672 2.8672 0.2048 1.6384-1.2288 2.8672-2.8672 2.8672z m0 14.1312h-5.5296c-1.6384 0-2.8672-1.2288-2.8672-2.8672 0-1.6384 1.2288-2.8672 2.8672-2.8672h5.5296c1.6384 0 2.8672 1.2288 2.8672 2.8672 0.2048 1.4336-1.2288 2.8672-2.8672 2.8672z m2.6624 27.8528h-8.192c-1.6384 0-2.8672-1.2288-2.8672-2.8672s1.2288-2.8672 2.8672-2.8672h8.192c1.6384 0 2.8672 1.2288 2.8672 2.8672s-1.2288 2.8672-2.8672 2.8672z m0 69.8368h-8.192c-1.6384 0-2.8672-1.2288-2.8672-2.8672 0-1.6384 1.2288-2.8672 2.8672-2.8672h8.192c1.6384 0 2.8672 1.2288 2.8672 2.8672 0.2048 1.6384-1.2288 2.8672-2.8672 2.8672z m-2.6624-55.9104h-5.5296c-1.6384 0-2.8672-1.2288-2.8672-2.8672s1.2288-2.8672 2.8672-2.8672h5.5296c1.6384 0 2.8672 1.2288 2.8672 2.8672s-1.2288 2.8672-2.8672 2.8672z m0 14.1312h-5.5296c-1.6384 0-2.8672-1.2288-2.8672-2.8672 0-1.6384 1.2288-2.8672 2.8672-2.8672h5.5296c1.6384 0 2.8672 1.2288 2.8672 2.8672 0.2048 1.4336-1.2288 2.8672-2.8672 2.8672z m0 13.9264h-5.5296c-1.6384 0-2.8672-1.2288-2.8672-2.8672 0-1.6384 1.2288-2.8672 2.8672-2.8672h5.5296c1.6384 0 2.8672 1.2288 2.8672 2.8672 0.2048 1.6384-1.2288 2.8672-2.8672 2.8672z m0 13.9264h-5.5296c-1.6384 0-2.8672-1.2288-2.8672-2.8672 0-1.6384 1.2288-2.8672 2.8672-2.8672h5.5296c1.6384 0 2.8672 1.2288 2.8672 2.8672 0.2048 1.6384-1.2288 2.8672-2.8672 2.8672z" fill="#000333" /></svg>