<?xml version="1.0" standalone="no"?><!DOCTYPE svg PUBLIC "-//W3C//DTD SVG 1.1//EN" "http://www.w3.org/Graphics/SVG/1.1/DTD/svg11.dtd"><svg class="icon" width="48px" height="48.00px" viewBox="0 0 1024 1024" version="1.1" xmlns="http://www.w3.org/2000/svg"><path d="M453.632 197.632h120.832v163.84H453.632zM705.536 413.696h120.832v59.392H705.536z" fill="#33CCFF" /><path d="M765.952 376.832c-6.144 0-10.24-4.096-10.24-10.24V245.76c0-6.144 4.096-10.24 10.24-10.24s10.24 4.096 10.24 10.24v120.832c0 6.144-4.096 10.24-10.24 10.24z" fill="#0066CC" /><path d="M201.728 361.472h120.832v102.4H201.728z" fill="#33CCFF" /><path d="M1021.952 860.16L883.712 578.56c-2.048-3.072-5.12-6.144-9.216-6.144h-37.888V413.696c0-6.144-4.096-10.24-10.24-10.24H705.536c-6.144 0-10.24 4.096-10.24 10.24V573.44H584.704V197.632c0-6.144-4.096-10.24-10.24-10.24H453.632c-6.144 0-10.24 4.096-10.24 10.24V573.44H332.8V361.472c0-6.144-4.096-10.24-10.24-10.24H201.728c-6.144 0-10.24 4.096-10.24 10.24V573.44h-36.864c-4.096 0-7.168 2.048-9.216 5.12L3.072 860.16c-2.048 3.072-1.024 7.168 0 10.24 2.048 3.072 5.12 5.12 9.216 5.12h75.776L22.528 1006.592c-2.048 3.072-1.024 7.168 0 10.24s5.12 5.12 9.216 5.12h955.392c3.072 0 7.168-2.048 8.192-5.12 2.048-3.072 2.048-6.144 1.024-9.216l-58.368-132.096h73.728c3.072 0 7.168-2.048 8.192-5.12 3.072-4.096 3.072-7.168 2.048-10.24zM715.776 484.352h100.352V696.32h-100.352V484.352z m0-60.416h100.352v38.912h-100.352v-38.912z m-251.904-52.224h100.352V696.32h-100.352V371.712z m0-163.84h100.352v143.36h-100.352v-143.36z m-251.904 266.24h100.352V696.32h-100.352V474.112z m0-102.4h100.352v81.92h-100.352v-81.92z m759.808 628.736H48.128l62.464-125.952H915.456l56.32 125.952z m-48.128-146.432s-1.024 0 0 0H28.672L160.768 593.92h29.696v112.64c0 6.144 4.096 10.24 10.24 10.24h120.832c6.144 0 10.24-4.096 10.24-10.24V593.92h110.592v112.64c0 6.144 4.096 10.24 10.24 10.24H573.44c6.144 0 10.24-4.096 10.24-10.24V593.92h110.592v112.64c0 6.144 4.096 10.24 10.24 10.24h120.832c6.144 0 10.24-4.096 10.24-10.24V593.92h31.744l128 261.12h-71.68z" fill="#0066CC" /><path d="M262.144 322.56c-6.144 0-10.24-4.096-10.24-10.24V190.464c0-6.144 4.096-10.24 10.24-10.24s10.24 4.096 10.24 10.24v120.832c0 6.144-5.12 11.264-10.24 11.264zM514.048 157.696c-6.144 0-10.24-4.096-10.24-10.24V26.624c0-6.144 4.096-10.24 10.24-10.24s10.24 4.096 10.24 10.24v120.832c0 6.144-5.12 10.24-10.24 10.24z" fill="#0066CC" /><path d="M326.656 251.904c-3.072 0-5.12-1.024-7.168-3.072l-57.344-63.488-57.344 63.488c-4.096 4.096-10.24 4.096-14.336 1.024-4.096-4.096-4.096-10.24-1.024-14.336l64.512-71.68c4.096-4.096 11.264-4.096 15.36 0l64.512 71.68c4.096 4.096 3.072 10.24-1.024 14.336-1.024 2.048-4.096 2.048-6.144 2.048zM578.56 92.16c-3.072 0-5.12-1.024-7.168-3.072l-57.344-63.488-57.344 63.488c-4.096 4.096-10.24 4.096-14.336 1.024-4.096-4.096-4.096-10.24-1.024-14.336l64.512-71.68c4.096-4.096 11.264-4.096 15.36 0l64.512 71.68c4.096 4.096 3.072 10.24-1.024 14.336-1.024 2.048-4.096 2.048-6.144 2.048zM830.464 311.296c-3.072 0-5.12-1.024-7.168-3.072l-57.344-63.488-57.344 63.488c-4.096 4.096-10.24 4.096-14.336 1.024-4.096-4.096-4.096-10.24-1.024-14.336l64.512-71.68c2.048-2.048 5.12-3.072 7.168-3.072 3.072 0 6.144 1.024 7.168 3.072l64.512 71.68c4.096 4.096 3.072 10.24-1.024 14.336 0 1.024-2.048 2.048-5.12 2.048z" fill="#0066CC" /></svg>