<?xml version="1.0" standalone="no"?><!DOCTYPE svg PUBLIC "-//W3C//DTD SVG 1.1//EN" "http://www.w3.org/Graphics/SVG/1.1/DTD/svg11.dtd"><svg class="icon" width="48px" height="48.00px" viewBox="0 0 1024 1024" version="1.1" xmlns="http://www.w3.org/2000/svg"><path d="M896.688 80H191.296a15.328 15.328 0 0 0-15.296 15.376V176H111.312a15.344 15.344 0 0 0-15.312 15.376v745.248c0 8.496 6.848 15.376 15.312 15.376h673.392a15.36 15.36 0 0 0 15.312-15.376V904h96.688a15.36 15.36 0 0 0 15.312-15.376V95.376A15.36 15.36 0 0 0 896.688 80z" fill="#FFFFFF" /><path d="M448 400m-80 0a80 80 0 1 0 160 0 80 80 0 1 0-160 0Z" fill="#A5F2DA" /><path d="M166.624 909.328h566.704a32 32 0 0 0 32-32V649.376a32 32 0 0 0-32-32H166.624a32 32 0 0 0-32 32v227.952a32 32 0 0 0 32 32z" fill="#24D796" /><path d="M448 544a128 128 0 1 0 0-256 128 128 0 0 0 0 256z m0-224a96 96 0 1 1 0 192 96 96 0 0 1 0-192zM320 672h320v32H320zM240 672h48v32h-48zM320 736h320v32H320zM240 736h48v32h-48zM368 848h32v32h-32zM432 848h32v32h-32zM496 848h32v32h-32z" fill="#203E81" /><path d="M784.688 160H111.312A31.344 31.344 0 0 0 80 191.376v745.248c0 17.312 14 31.376 31.312 31.376h673.392a31.344 31.344 0 0 0 31.312-31.376V191.376A31.36 31.36 0 0 0 784.688 160zM784 936H112V192h672v744z" fill="#203E81" /><path d="M896 64H192a32 32 0 0 0-32 32v32.752h32V96h704v792h-42.88v32H896a32 32 0 0 0 32-32V96a32 32 0 0 0-32-32zM278.544 512.896l-81.664-97.44 81.664-97.44-24.528-20.56-98.896 118 98.896 118z" fill="#203E81" /><path d="M643.648 533.456l98.896-118-98.896-118-24.528 20.56 81.664 97.44-81.664 97.44z" fill="#203E81" /></svg>